<?xml version="1.0" encoding="utf-8"?>
<!-- Generator: Adobe Illustrator 22.0.1, SVG Export Plug-In . SVG Version: 6.00 Build 0)  -->
<svg version="1.1" id="图层_1" xmlns="http://www.w3.org/2000/svg" xmlns:xlink="http://www.w3.org/1999/xlink" x="0px" y="0px"
	 viewBox="0 0 83 28" style="enable-background:new 0 0 83 28;" xml:space="preserve">
<style type="text/css">
	.st0{fill:#FFFFFF;}
</style>
<g>
	<g>
		<path class="st0" d="M19.4,2.8L11,0.2C10.6,0.1,10.2,0,9.8,0c0,0-0.1,0-0.1,0c0,0-0.1,0-0.1,0c0,0-0.1,0-0.1,0
			c-2,0-3.6,1.7-3.6,3.7v1.9c0,0.9,0.8,1.7,1.7,1.7c0.2,0,0.4,0,0.6-0.1c0.6-0.2,1.1-0.9,1.1-1.6V4.1c0,0,0,0,0,0
			c0-0.3,0.2-0.5,0.5-0.5c0.1,0,0.1,0,0.2,0c0,0,0,0,0,0c0,0,1.5,0.5,3.2,1C15,5.1,17,5.8,17.9,6.1c1.3,0.4,2.2,1.6,2.2,3
			c0,0,0,0,0,0v7.8c0,0,0,0,0,0c0,0.3-0.2,0.5-0.5,0.5c0,0-0.1,0-0.1,0l-8.5-2.7c0,0-0.1,0-0.1,0c-0.2-0.1-0.5-0.1-0.7-0.2l0,0
			c0,0-0.1,0-0.1,0c-0.1,0-0.2,0-0.4,0c-2.1,0-3.7,1.7-3.7,3.7v0V20c0,0.9,0.8,1.7,1.7,1.7c0.2,0,0.4,0,0.5-0.1
			c0.7-0.2,1.2-0.9,1.2-1.6v-1.4c0,0,0,0,0,0c0-0.3,0.2-0.5,0.5-0.5c0.1,0,0.1,0,0.2,0c0,0,0,0,0,0l3.2,1l5.1,1.6
			c1.3,0.4,2.6,0.2,3.6-0.5c1-0.7,1.5-1.9,1.5-3.2V8.5C23.4,6.1,21.7,3.6,19.4,2.8z"/>
		<path class="st0" d="M4,25.1l8.4,2.6c0.4,0.1,0.8,0.2,1.2,0.2c0,0,0.1,0,0.1,0c0,0,0.1,0,0.1,0c0,0,0.1,0,0.1,0
			c2,0,3.6-1.7,3.6-3.7v-1.9c0-0.9-0.8-1.7-1.7-1.7c-0.2,0-0.4,0-0.6,0.1c-0.6,0.2-1.1,0.9-1.1,1.6v1.5c0,0,0,0,0,0
			c0,0.3-0.2,0.5-0.5,0.5c-0.1,0-0.1,0-0.2,0c0,0,0,0,0,0c0,0-1.5-0.5-3.2-1c-1.8-0.6-3.8-1.2-4.7-1.5c-1.3-0.4-2.2-1.6-2.2-3
			c0,0,0,0,0,0v-7.8c0,0,0,0,0,0c0-0.3,0.2-0.5,0.5-0.5c0,0,0.1,0,0.1,0l8.5,2.7c0,0,0.1,0,0.1,0c0.2,0.1,0.5,0.1,0.7,0.2l0,0
			c0,0,0.1,0,0.1,0c0.1,0,0.2,0,0.4,0c2.1,0,3.7-1.7,3.7-3.7v0V7.9c0-0.9-0.8-1.7-1.7-1.7c-0.2,0-0.4,0-0.5,0.1
			c-0.7,0.2-1.2,0.9-1.2,1.6v1.4c0,0,0,0,0,0c0,0.3-0.2,0.5-0.5,0.5c-0.1,0-0.1,0-0.2,0c0,0,0,0,0,0l-3.2-1L5.1,7.2
			C3.8,6.8,2.5,7,1.5,7.7C0.6,8.4,0,9.6,0,10.9l0,8.5C0,21.9,1.8,24.4,4,25.1z"/>
	</g>
	<g>
		<path id="XMLID_62_" class="st0" d="M40.8,27.3l-4.8-13.1l0,0c-0.1-0.1-0.2-0.3-0.4-0.3h-1.2c-0.2,0-0.3,0.1-0.4,0.3l0,0
			l-4.7,13.1l0,0c0,0,0,0.1,0,0.2c0,0.2,0.2,0.4,0.4,0.4h1.4c0.2,0,0.3-0.1,0.4-0.3l0,0l1-3.1h4.8l1.2,3.1l0,0
			c0.1,0.2,0.2,0.3,0.4,0.3h1.4c0.2,0,0.4-0.2,0.4-0.4C40.8,27.4,40.8,27.4,40.8,27.3L40.8,27.3z M33.3,22.5l1.2-3.1
			c0.1-0.3,0.2-0.6,0.3-0.9c0.1-0.3,0.2-0.5,0.2-0.8h0c0.1,0.2,0.1,0.5,0.2,0.8c0.1,0.3,0.2,0.6,0.3,0.9l1.1,3.1H33.3z"/>
		<path id="XMLID_59_" class="st0" d="M62.1,19c-0.4-0.4-0.8-0.7-1.4-0.9c-0.5-0.2-1.1-0.3-1.7-0.3c-0.6,0-1.2,0.1-1.7,0.3
			c-0.5,0.2-1,0.5-1.4,0.9c-0.4,0.5-0.8,1-1,1.7c-0.2,0.6-0.4,1.4-0.4,2.2c0,0.8,0.1,1.5,0.3,2.2c0.2,0.7,0.6,1.2,1,1.7
			c0.4,0.4,0.8,0.7,1.3,0.9c0.5,0.2,1.1,0.3,1.7,0.3c0.6,0,1.2-0.1,1.7-0.3c0.5-0.2,1-0.5,1.4-0.9c0.4-0.5,0.8-1,1-1.7
			c0.2-0.7,0.4-1.4,0.4-2.2c0-0.8-0.1-1.5-0.4-2.2C62.8,20.1,62.5,19.5,62.1,19z M61.7,24.4c-0.1,0.5-0.3,0.9-0.6,1.2
			c-0.2,0.3-0.6,0.6-0.9,0.8c-0.4,0.2-0.8,0.3-1.2,0.3c-0.5,0-0.9-0.1-1.2-0.3c-0.4-0.2-0.7-0.4-0.9-0.8c-0.2-0.3-0.4-0.7-0.6-1.2
			c-0.1-0.5-0.2-1-0.2-1.6c0-0.6,0.1-1.1,0.2-1.6c0.1-0.5,0.3-0.9,0.6-1.2c0.2-0.3,0.6-0.6,0.9-0.8c0.4-0.2,0.8-0.3,1.2-0.3
			c0.5,0,0.9,0.1,1.2,0.3c0.4,0.2,0.7,0.4,0.9,0.8s0.4,0.7,0.6,1.2c0.1,0.5,0.2,1,0.2,1.6C61.9,23.4,61.8,23.9,61.7,24.4z"/>
		<path class="st0" d="M52.4,26.1L52.4,26.1C52.4,26.1,52.4,26.1,52.4,26.1c-0.1-0.2-0.2-0.3-0.4-0.3c-0.1,0-0.2,0-0.2,0
			s-0.7,0.3-1.1,0.4c-0.6,0.2-1.1,0.2-1.7,0.2c-0.8,0-1.5-0.1-2.2-0.4c-0.6-0.3-1.2-0.7-1.6-1.2s-0.8-1.1-1-1.8
			c-0.2-0.7-0.3-1.4-0.3-2.3c0-0.8,0.1-1.6,0.3-2.3c0.2-0.7,0.6-1.3,1-1.8s1-0.9,1.6-1.2c0.6-0.3,1.3-0.4,2.2-0.4
			c0.6,0,1.1,0.1,1.7,0.2c0.4,0.1,1.1,0.4,1.1,0.4s0.1,0,0.2,0c0.2,0,0.3-0.1,0.4-0.2c0,0,0,0,0,0l0,0c0,0,0,0,0,0l0.3-0.8
			c-0.6-0.4-1.3-0.6-1.9-0.8C50.1,14,49.5,14,48.8,14c-1,0-1.9,0.2-2.7,0.5c-0.8,0.3-1.5,0.8-2.1,1.4c-0.6,0.6-1,1.3-1.3,2.2
			c-0.3,0.8-0.5,1.9-0.5,2.8c0,1,0.2,2,0.5,2.9c0.3,0.8,0.7,1.6,1.3,2.2c0.6,0.6,1.3,1.1,2.1,1.4s1.7,0.5,2.7,0.5
			c0.6,0,1.3-0.1,1.9-0.2c0.6-0.2,1.3-0.4,1.9-0.8L52.4,26.1C52.4,26.2,52.4,26.2,52.4,26.1z"/>
		<path id="XMLID_56_" class="st0" d="M65.7,19c0,0.3,0,0.7,0,1.2c0,0.5,0,1.1,0,1.9l0,5.4c0,0.2,0.2,0.4,0.4,0.4h0.6
			c0.2,0,0.4-0.2,0.4-0.4c0,0,0,0,0,0l0-7.1c0.1-0.1,0.2-0.3,0.4-0.4c0.2-0.2,0.4-0.3,0.6-0.4s0.5-0.2,0.7-0.3
			c0.3-0.1,0.6-0.1,0.9-0.1c0.3,0,0.6,0,0.8,0.1c0.2,0.1,0.4,0.2,0.6,0.4c0.2,0.2,0.3,0.4,0.4,0.7c0.1,0.3,0.1,0.6,0.1,1v6.1
			c0,0.2,0.2,0.4,0.4,0.4h0.6c0.2,0,0.4-0.2,0.4-0.4v-6.3c0-0.7-0.1-1.2-0.3-1.7c-0.2-0.4-0.4-0.8-0.7-1c-0.3-0.3-0.6-0.4-1-0.5
			c-0.4-0.1-0.7-0.1-1-0.1c-0.3,0-0.6,0-0.9,0.1c-0.3,0.1-0.6,0.2-0.9,0.3c-0.3,0.1-0.5,0.2-0.7,0.4c-0.2,0.1-0.4,0.3-0.6,0.4
			l-0.3-0.7l0-0.1c-0.1-0.1-0.2-0.4-0.4-0.4c0,0,0,0,0,0c0,0,0,0,0,0h-0.9C65.6,17.9,65.7,18.7,65.7,19z"/>
		<path id="XMLID_28_" class="st0" d="M75.5,19c0,0.3,0,0.7,0,1.2c0,0.5,0,1.1,0,1.9l0,5.4c0,0.2,0.2,0.4,0.4,0.4h0.6
			c0.2,0,0.4-0.2,0.4-0.4c0,0,0,0,0,0l0-7.1c0.1-0.1,0.2-0.3,0.4-0.4c0.2-0.2,0.4-0.3,0.6-0.4s0.5-0.2,0.7-0.3
			c0.3-0.1,0.6-0.1,0.9-0.1c0.3,0,0.6,0,0.8,0.1c0.2,0.1,0.4,0.2,0.6,0.4c0.2,0.2,0.3,0.4,0.4,0.7c0.1,0.3,0.1,0.6,0.1,1v6.1
			c0,0.2,0.2,0.4,0.4,0.4h0.6c0.2,0,0.4-0.2,0.4-0.4v-6.3c0-0.7-0.1-1.2-0.3-1.7c-0.2-0.4-0.4-0.8-0.7-1c-0.3-0.3-0.6-0.4-1-0.5
			c-0.4-0.1-0.7-0.1-1-0.1c-0.3,0-0.6,0-0.9,0.1c-0.3,0.1-0.6,0.2-0.9,0.3c-0.3,0.1-0.5,0.2-0.7,0.4c-0.2,0.1-0.4,0.3-0.6,0.4
			l-0.3-0.7l0-0.1c-0.1-0.1-0.2-0.4-0.4-0.4c0,0,0,0,0,0c0,0,0,0,0,0h-0.9C75.4,17.9,75.5,18.7,75.5,19z"/>
	</g>
</g>
</svg>
